<?xml version="1.0" encoding="UTF-8"?>
<svg id="Layer_2" data-name="Layer 2" xmlns="http://www.w3.org/2000/svg" viewBox="0 0 6082.8 5837.24">
  <defs>
    <style>
      .cls-1 {
        fill: #ffc7c7;
      }
    </style>
  </defs>
  <g id="Layer_1-2" data-name="Layer 1">
    <path class="cls-1" d="m3029.86,998.39s-1175,947.3-1544.07,1806.98c0,0,0,.01,0,0,6.99-26.22,213.08-793.58,194.4-1052.35-19.12-263.15-563.03-824.67-1300.27-386.02h0S-234.22,1946.14,99.16,2384.79c0,0,0,0,0,0,.06-.1,216.55-328.45,351.01-368.41,33.08-9.88,60.36-20.41,83.13-30.93,66.16-30.93,107.84-97.1,111.27-169.92,7.73-162.83,68.96-557.44,489.99-430.91,526.51,157.89,228.13,807.27,87.86,1035.4-136.84,222.33-847.23,1394.14-238.87,2509.45.22.22.22.64.43.86,149.94,315.78,395.47,631.55,797.39,794.17,275.16,111.48,623.78,151.01,1064.97,69.4,0,0,.02,0,.02,0-24.17,2.39-265.25,25.52-552.23-19.34l2.36.22c-262.52-58.92-429.98-152.67-536.65-245.4-87.84-76.36-150.6-177.38-184.74-288.66l-.39-1.26c-.21-.65-.21-1.08-.21-1.08-57.4-188.76-87.27-455.02-18.61-811.27,10.43-54.11,24.58-107.45,40.24-160.28,2.23-7.51,4.47-15.19,6.72-23.03,358.95-1243.77,1991.75-924.99,2191.31-881.17-2026.55-491.92-710.6-1998.41-679.03-2034.29.43-.43.65-.64.65-.64,441.87-481.18,1019.93-939.17,1756.75-1224.23h0s802.76-230.49,1210.26,122.23c-25.56-26.21-842.71-833.05-3052.93,772.69,0,0,0,0,0,0Zm-1414.98,3185.25c.65-3.01,1.5-5.8,2.36-8.81l.22-.22c-.86,3.01-1.72,6.02-2.58,9.02Z"/>
  </g>
</svg>